<svg width="28" height="28" viewBox="0 0 28 28" fill="none" xmlns="http://www.w3.org/2000/svg">
<path d="M12.0909 0C9.59891 0 7.59691 1.75007 7.59691 3.86585V4.33591H2.54545C1.84418 4.33591 1.27273 4.81887 1.27273 5.41155V6.48719H0V8.63847H2.54545V24.7731C2.54545 26.5425 4.27 28 6.36364 28H21.6364C23.73 28 25.4545 26.5425 25.4545 24.7731V8.63847H28V6.48719H26.7273V5.41155C26.7273 4.81887 26.1558 4.33591 25.4545 4.33591H20.4031V3.86478C20.4031 1.75007 18.4011 0 15.9091 0H12.0909ZM12.0909 2.21797H15.9091C16.9324 2.21797 17.7787 2.92359 17.7787 3.86478V4.33591H10.22V3.86478C10.22 2.92359 11.0664 2.21905 12.0896 2.21905L12.0909 2.21797ZM5.09091 8.63847H11.6136C11.7715 8.65245 11.928 8.67182 12.0909 8.67182H15.9091C16.072 8.67182 16.2273 8.65245 16.3864 8.63847H22.9091V24.7731C22.9091 25.3787 22.3529 25.8487 21.6364 25.8487H6.36364C5.64709 25.8487 5.09091 25.3787 5.09091 24.7731V8.63847ZM7.63636 10.7898V23.6974H10.1818V10.7898H7.63636ZM12.7273 10.7898V23.6974H15.2727V10.7898H12.7273ZM17.8182 10.7898V23.6974H20.3636V10.7898H17.8182Z" fill="white"/>
</svg>
