<svg width="20" height="20" viewBox="0 0 20 20" fill="none" xmlns="http://www.w3.org/2000/svg">
<path d="M20 3.75066H18.4615V18.1251C18.4615 18.3855 18.4014 18.6296 18.2812 18.8575C18.1611 19.0853 17.9968 19.2839 17.7885 19.4531C17.5801 19.6224 17.3357 19.7559 17.0553 19.8535C16.7748 19.9512 16.4744 20 16.1538 20H3.84615C3.52564 20 3.22516 19.9512 2.94471 19.8535C2.66426 19.7559 2.41987 19.6224 2.21154 19.4531C2.00321 19.2839 1.83894 19.0853 1.71875 18.8575C1.59856 18.6296 1.53846 18.3855 1.53846 18.1251V3.75066H0V2.50071H6.15385V1.25076C6.15385 1.07499 6.19391 0.912235 6.27404 0.762502C6.35417 0.612768 6.46234 0.482565 6.59856 0.371892C6.73478 0.26122 6.89904 0.170078 7.09135 0.098466C7.28365 0.0268544 7.48397 -0.00569638 7.69231 0.000813769H12.3077C12.524 0.000813769 12.7244 0.0333645 12.9087 0.098466C13.0929 0.163568 13.2532 0.251455 13.3894 0.362127C13.5256 0.4728 13.6378 0.606258 13.726 0.762502C13.8141 0.918745 13.8542 1.0815 13.8462 1.25076V2.50071H20V3.75066ZM7.69231 2.50071H12.3077V1.25076H7.69231V2.50071ZM16.9231 3.75066H3.07692V18.1251C3.07692 18.2943 3.15304 18.4408 3.30529 18.5645C3.45753 18.6882 3.63782 18.7501 3.84615 18.7501H16.1538C16.3622 18.7501 16.5425 18.6882 16.6947 18.5645C16.847 18.4408 16.9231 18.2943 16.9231 18.1251V3.75066ZM7.69231 16.2502H6.15385V6.25056H7.69231V16.2502ZM10.7692 16.2502H9.23077V6.25056H10.7692V16.2502ZM13.8462 16.2502H12.3077V6.25056H13.8462V16.2502Z" fill="white"/>
</svg>
